<?xml version="1.0" encoding="utf-8"?>
<!-- Generator: Adobe Illustrator 23.0.1, SVG Export Plug-In . SVG Version: 6.00 Build 0)  -->
<svg version="1.1" id="Layer_1" xmlns="http://www.w3.org/2000/svg" xmlns:xlink="http://www.w3.org/1999/xlink" x="0px" y="0px"
	 viewBox="0 0 457.4 121.3" style="enable-background:new 0 0 457.4 121.3;" xml:space="preserve">
<style type="text/css">
	.st0{fill:#FF0000;stroke:#000000;stroke-width:0.8168;stroke-miterlimit:10;}
	.st1{stroke:#FFFFFF;stroke-width:1.2551;stroke-miterlimit:10;}
	.st2{fill:none;stroke:#000000;stroke-width:1.6336;stroke-miterlimit:10;}
</style>
<g>
	<g>
		<g>
			<g>
				<path class="st0" d="M101.6,42.5l-1.3-5.6h-6.9l-1.3,5.6h-7l7.5-30.9h8.8l7.5,30.9H101.6z M97,18.4h-0.2l-2.6,13.1h5.3L97,18.4z
					"/>
				<path class="st0" d="M127.3,42.2c-1.4,0.8-3.1,1.2-5.2,1.2c-1.8,0-3.4-0.4-4.9-1.2c-1.5-0.8-2.7-1.9-3.8-3.4
					c-1-1.4-1.9-3.2-2.4-5.2c-0.6-2-0.9-4.2-0.9-6.6c0-2.4,0.3-4.6,0.9-6.6c0.6-2,1.4-3.7,2.4-5.2c1-1.4,2.3-2.5,3.8-3.3
					c1.5-0.8,3.1-1.2,4.9-1.2c2.1,0,3.8,0.4,5.2,1.1c1.4,0.7,2.5,1.7,3.3,2.8l-3.8,5.1c-0.5-0.7-1.1-1.3-1.8-1.7
					c-0.7-0.4-1.5-0.6-2.5-0.6c-0.9,0-1.7,0.2-2.4,0.7c-0.7,0.5-1.3,1.2-1.7,2c-0.5,0.9-0.8,1.9-1.1,3.1c-0.2,1.2-0.3,2.4-0.3,3.8
					c0,1.3,0.1,2.6,0.3,3.8c0.2,1.2,0.6,2.2,1.1,3.1c0.5,0.9,1.1,1.6,1.8,2.1c0.7,0.5,1.5,0.7,2.4,0.7s1.7-0.2,2.4-0.7
					c0.7-0.5,1.3-1,1.7-1.7l3.9,4.8C129.8,40.4,128.7,41.4,127.3,42.2z"/>
				<path class="st0" d="M133.7,42.5V11.6h14.9v6.2h-8.3v6.1h7.6v5.8h-7.6v6.6h8.8v6.3H133.7z"/>
				<path class="st0" d="M162,42.5V11.6h7v30.9H162z"/>
				<path class="st0" d="M187.9,42.5l-7.2-18.8h-0.1l0.2,18.8h-6.2V11.6h7.7l7.1,19.1h0.1l-0.1-19.1h6v30.9H187.9z"/>
				<path class="st0" d="M218.3,17.6v25h-6.9v-25h-5.7v-5.9H224v5.9H218.3z"/>
				<path class="st0" d="M240.8,42.5V29.6h-7.2v12.9h-6.9V11.6h6.9v11.7h7.2V11.6h6.9v30.9H240.8z"/>
				<path class="st0" d="M253.3,42.5V11.6h14.9v6.2h-8.3v6.1h7.6v5.8h-7.6v6.6h8.8v6.3H253.3z"/>
				<path class="st0" d="M295.7,42.5V29.6h-7.2v12.9h-6.9V11.6h6.9v11.7h7.2V11.6h6.9v30.9H295.7z"/>
				<path class="st0" d="M330.6,27c0,2.4-0.3,4.7-0.8,6.7c-0.6,2-1.3,3.7-2.4,5.2c-1,1.4-2.3,2.5-3.7,3.3c-1.5,0.8-3.1,1.2-5,1.2
					c-1.8,0-3.5-0.4-5-1.2c-1.5-0.8-2.7-1.9-3.7-3.3c-1-1.4-1.8-3.2-2.4-5.2c-0.6-2-0.8-4.3-0.8-6.7c0-2.4,0.3-4.7,0.8-6.7
					c0.5-2,1.3-3.7,2.3-5.1c1-1.4,2.3-2.5,3.7-3.3c1.5-0.8,3.1-1.2,5-1.2c1.8,0,3.5,0.4,5,1.2c1.5,0.8,2.7,1.9,3.7,3.3
					c1,1.4,1.8,3.1,2.4,5.1C330.4,22.3,330.6,24.6,330.6,27z M323.5,27c0-1.3-0.1-2.6-0.3-3.7c-0.2-1.1-0.5-2.1-0.9-3
					c-0.4-0.8-0.9-1.5-1.5-2c-0.6-0.5-1.3-0.7-2.1-0.7c-0.8,0-1.5,0.2-2.1,0.7c-0.6,0.5-1.1,1.1-1.5,2c-0.4,0.8-0.7,1.8-0.9,3
					c-0.2,1.2-0.3,2.4-0.3,3.7c0,1.3,0.1,2.6,0.3,3.8c0.2,1.2,0.5,2.2,0.9,3c0.4,0.8,0.9,1.5,1.5,2c0.6,0.5,1.3,0.7,2.1,0.7
					c0.8,0,1.5-0.2,2.1-0.7c0.6-0.5,1.1-1.2,1.5-2c0.4-0.8,0.7-1.8,0.9-3C323.4,29.6,323.5,28.3,323.5,27z"/>
				<path class="st0" d="M334.9,42.5V11.6h7.1v24.5h8.3v6.5H334.9z"/>
				<path class="st0" d="M353.3,42.5V11.6h14.9v6.2H360v6.1h7.6v5.8H360v6.6h8.8v6.3H353.3z"/>
			</g>
			<g>
				<path class="st0" d="M104.9,77.9l0.2-19.3H105l-4.3,19.3h-4.1l-4.1-19.3h-0.1l0.2,19.3h-5.2V49.8h7.2l4.1,18.1h0.1l4-18.1h7.7
					v28.1H104.9z"/>
				<path class="st0" d="M131.3,71.8c-0.3,1.3-0.8,2.5-1.5,3.5c-0.7,1-1.6,1.8-2.7,2.4c-1.1,0.6-2.4,0.9-4,0.9
					c-1.6,0-2.9-0.3-3.9-0.9c-1.1-0.6-2-1.4-2.6-2.4s-1.2-2.2-1.5-3.5c-0.3-1.3-0.4-2.8-0.4-4.4V49.8h5.8v17.1c0,0.8,0,1.5,0.1,2.2
					c0.1,0.7,0.2,1.3,0.4,1.8c0.2,0.5,0.5,0.9,0.9,1.2c0.4,0.3,0.8,0.4,1.4,0.4s1-0.1,1.4-0.4c0.4-0.3,0.6-0.7,0.9-1.2
					c0.2-0.5,0.4-1.1,0.4-1.8c0.1-0.7,0.1-1.4,0.1-2.2V49.8h5.7v17.7C131.8,69,131.6,70.5,131.3,71.8z"/>
				<path class="st0" d="M135.9,77.9V49.8h5.8V72h6.8v5.9H135.9z"/>
				<path class="st0" d="M158.2,55.2v22.7h-5.6V55.2h-4.7v-5.4h14.9v5.4H158.2z"/>
				<path class="st0" d="M165,77.9V49.8h5.8v28.1H165z"/>
				<path class="st0" d="M185.8,56.5c-0.4-0.6-0.9-1-1.5-1.3c-0.6-0.3-1.2-0.5-1.8-0.5c-0.6,0-1.2,0.2-1.7,0.7
					c-0.5,0.5-0.8,1.2-0.8,2.2c0,0.9,0.3,1.6,0.8,2c0.5,0.5,1.3,1,2.3,1.6c0.6,0.3,1.2,0.7,1.8,1.1c0.6,0.4,1.2,1,1.8,1.6
					c0.5,0.6,1,1.4,1.3,2.3c0.3,0.9,0.5,1.9,0.5,3.2c0,1.5-0.2,2.8-0.6,4c-0.4,1.2-1,2.1-1.8,2.9c-0.7,0.8-1.6,1.3-2.5,1.7
					c-1,0.4-2,0.6-3,0.6c-1.5,0-2.9-0.3-4.2-1c-1.3-0.6-2.3-1.4-3-2.2l2.9-4.8c0.5,0.6,1.2,1.1,1.9,1.5c0.7,0.4,1.4,0.6,2.2,0.6
					c0.7,0,1.3-0.3,1.8-0.8c0.5-0.5,0.7-1.2,0.7-2.1c0-0.9-0.3-1.7-0.9-2.2c-0.6-0.5-1.4-1.1-2.5-1.7c-0.7-0.4-1.3-0.8-2-1.2
					c-0.6-0.4-1.1-1-1.6-1.6c-0.5-0.6-0.8-1.4-1.1-2.2c-0.3-0.8-0.4-1.9-0.4-3c0-1.6,0.2-2.9,0.7-4c0.5-1.1,1.1-2,1.8-2.8
					c0.8-0.7,1.6-1.2,2.5-1.6c0.9-0.3,1.8-0.5,2.8-0.5c1.4,0,2.6,0.2,3.7,0.7c1.1,0.5,2,1.2,2.8,2L185.8,56.5z"/>
				<path class="st0" d="M207.5,58.6c0,1.6-0.2,2.9-0.6,4c-0.4,1.1-1,2.1-1.7,2.8c-0.7,0.7-1.5,1.3-2.4,1.6
					c-0.9,0.4-1.8,0.5-2.8,0.5h-2.5v10.2h-5.6V49.8h7.9c0.9,0,1.8,0.1,2.7,0.4c0.9,0.3,1.8,0.8,2.5,1.4c0.8,0.7,1.4,1.6,1.8,2.7
					C207.3,55.5,207.5,56.9,207.5,58.6z M202.1,58.7c0-1.3-0.3-2.2-0.8-2.7c-0.6-0.6-1.2-0.8-2-0.8h-1.8v7.3h1.8c0.8,0,1.5-0.3,2-1
					C201.9,60.8,202.1,59.9,202.1,58.7z"/>
				<path class="st0" d="M229,63.7c0,2.2-0.2,4.3-0.7,6.1c-0.5,1.8-1.1,3.4-1.9,4.7c-0.8,1.3-1.9,2.3-3.1,3
					c-1.2,0.7-2.6,1.1-4.1,1.1c-1.5,0-2.9-0.4-4.1-1.1c-1.2-0.7-2.2-1.7-3.1-3c-0.8-1.3-1.5-2.9-1.9-4.7c-0.5-1.8-0.7-3.9-0.7-6.1
					c0-2.2,0.2-4.2,0.7-6.1c0.4-1.8,1.1-3.4,1.9-4.6c0.8-1.3,1.9-2.3,3.1-3c1.2-0.7,2.6-1.1,4.1-1.1c1.5,0,2.9,0.4,4.1,1.1
					c1.2,0.7,2.2,1.7,3.1,3c0.8,1.3,1.5,2.8,1.9,4.6C228.8,59.5,229,61.5,229,63.7z M223.1,63.7c0-1.2-0.1-2.3-0.3-3.4
					c-0.2-1-0.4-2-0.7-2.7c-0.3-0.8-0.7-1.4-1.2-1.8c-0.5-0.4-1-0.7-1.7-0.7s-1.2,0.2-1.7,0.7c-0.5,0.4-0.9,1-1.2,1.8
					c-0.3,0.8-0.6,1.7-0.7,2.7c-0.2,1-0.2,2.2-0.2,3.4s0.1,2.4,0.2,3.4c0.2,1.1,0.4,2,0.7,2.7c0.3,0.8,0.7,1.4,1.2,1.8
					c0.5,0.5,1.1,0.7,1.7,0.7s1.2-0.2,1.7-0.7c0.5-0.4,0.9-1.1,1.2-1.8c0.3-0.8,0.6-1.7,0.7-2.7C223.1,66.1,223.1,64.9,223.1,63.7z"
					/>
				<path class="st0" d="M243.1,77.9l-3.4-11.2H238v11.2h-5.5V49.8h8.1c2.5,0,4.4,0.7,5.7,2.1c1.4,1.4,2,3.5,2,6.3
					c0,1-0.1,2-0.3,2.8c-0.2,0.8-0.5,1.5-0.8,2.1c-0.3,0.6-0.7,1.1-1.2,1.4c-0.4,0.4-0.8,0.6-1.3,0.8l4.3,12.5H243.1z M242.7,58.6
					c0-0.7-0.1-1.3-0.3-1.7c-0.2-0.4-0.4-0.8-0.7-1.1c-0.3-0.3-0.6-0.4-0.9-0.5c-0.3-0.1-0.7-0.1-1-0.1H238v7.1h1.7
					c0.8,0,1.5-0.3,2.1-0.9C242.4,60.8,242.7,59.8,242.7,58.6z"/>
				<path class="st0" d="M259.7,55.2v22.7H254V55.2h-4.7v-5.4h14.9v5.4H259.7z"/>
			</g>
			<g>
				<path class="st0" d="M269.8,77.9V49.8h12v5.6h-6.7v5.5h6.1v5.2h-6.1v6h7.1v5.7H269.8z"/>
				<path class="st0" d="M296.4,77.9h-7.1l-6-28.1h6.4l3.4,20.6h0.1l3.3-20.6h6.1L296.4,77.9z"/>
				<path class="st0" d="M304.7,77.9V49.8h12v5.6h-6.7v5.5h6.1v5.2h-6.1v6h7.1v5.7H304.7z"/>
				<path class="st0" d="M331.3,77.9l-5.8-17.1h-0.1l0.1,17.1h-5V49.8h6.2l5.7,17.3h0.1l-0.1-17.3h4.9v28.1H331.3z"/>
				<path class="st0" d="M349.6,55.2v22.7h-5.5V55.2h-4.6v-5.4h14.7v5.4H349.6z"/>
				<path class="st0" d="M366.7,56.5c-0.4-0.6-0.9-1-1.5-1.3c-0.6-0.3-1.1-0.5-1.8-0.5c-0.6,0-1.2,0.2-1.7,0.7
					c-0.5,0.5-0.8,1.2-0.8,2.2c0,0.9,0.3,1.6,0.8,2c0.5,0.5,1.3,1,2.3,1.6c0.6,0.3,1.2,0.7,1.8,1.1c0.6,0.4,1.2,1,1.7,1.6
					c0.5,0.6,1,1.4,1.3,2.3c0.3,0.9,0.5,1.9,0.5,3.2c0,1.5-0.2,2.8-0.6,4c-0.4,1.2-1,2.1-1.7,2.9c-0.7,0.8-1.6,1.3-2.5,1.7
					c-0.9,0.4-1.9,0.6-2.9,0.6c-1.5,0-2.9-0.3-4.1-1c-1.2-0.6-2.2-1.4-3-2.2l2.9-4.8c0.5,0.6,1.2,1.1,1.9,1.5
					c0.7,0.4,1.4,0.6,2.1,0.6c0.7,0,1.3-0.3,1.7-0.8c0.5-0.5,0.7-1.2,0.7-2.1c0-0.9-0.3-1.7-0.8-2.2s-1.4-1.1-2.5-1.7
					c-0.7-0.4-1.3-0.8-1.9-1.2c-0.6-0.4-1.1-1-1.6-1.6c-0.5-0.6-0.8-1.4-1.1-2.2c-0.3-0.8-0.4-1.9-0.4-3c0-1.6,0.2-2.9,0.7-4
					c0.5-1.1,1.1-2,1.8-2.8s1.6-1.2,2.5-1.6c0.9-0.3,1.8-0.5,2.7-0.5c1.4,0,2.6,0.2,3.7,0.7c1.1,0.5,2,1.2,2.7,2L366.7,56.5z"/>
			</g>
			<g>
				<path class="st1" d="M104.4,104.3v-19h8.9v3.8h-4.9v3.7h4.5v3.5h-4.5v4.1h5.2v3.9H104.4z"/>
				<path class="st1" d="M124.1,104.3h-5.3l-4.4-19h4.7l2.5,13.9h0.1l2.5-13.9h4.5L124.1,104.3z"/>
				<path class="st1" d="M130.3,104.3v-19h8.9v3.8h-4.9v3.7h4.5v3.5h-4.5v4.1h5.2v3.9H130.3z"/>
				<path class="st1" d="M149.9,104.3l-4.3-11.6h-0.1l0.1,11.6h-3.7v-19h4.6l4.2,11.7h0.1l-0.1-11.7h3.6v19H149.9z"/>
				<path class="st1" d="M163.4,89v15.3h-4.1V89h-3.4v-3.6h10.8V89H163.4z"/>
				<path class="st1" d="M176,89.8c-0.3-0.4-0.7-0.7-1.1-0.9c-0.4-0.2-0.9-0.3-1.3-0.3c-0.5,0-0.9,0.2-1.3,0.5
					c-0.4,0.3-0.6,0.8-0.6,1.5c0,0.6,0.2,1.1,0.6,1.4c0.4,0.3,0.9,0.7,1.7,1.1c0.4,0.2,0.9,0.5,1.3,0.8c0.5,0.3,0.9,0.7,1.3,1.1
					s0.7,0.9,1,1.5c0.3,0.6,0.4,1.3,0.4,2.1c0,1-0.2,1.9-0.5,2.7c-0.3,0.8-0.7,1.4-1.3,1.9c-0.5,0.5-1.1,0.9-1.8,1.2
					c-0.7,0.3-1.4,0.4-2.2,0.4c-1.1,0-2.1-0.2-3-0.6c-0.9-0.4-1.6-0.9-2.2-1.5l2.1-3.2c0.4,0.4,0.9,0.8,1.4,1c0.5,0.3,1,0.4,1.6,0.4
					c0.5,0,0.9-0.2,1.3-0.5c0.3-0.3,0.5-0.8,0.5-1.4c0-0.6-0.2-1.1-0.6-1.5c-0.4-0.4-1-0.8-1.8-1.2c-0.5-0.3-1-0.5-1.4-0.8
					c-0.4-0.3-0.8-0.7-1.2-1.1c-0.3-0.4-0.6-0.9-0.8-1.5s-0.3-1.3-0.3-2c0-1.1,0.2-2,0.5-2.7c0.3-0.8,0.8-1.4,1.3-1.9
					c0.5-0.5,1.2-0.8,1.8-1.1c0.7-0.2,1.3-0.3,2-0.3c1,0,1.9,0.2,2.7,0.5c0.8,0.3,1.5,0.8,2,1.4L176,89.8z"/>
				<path class="st1" d="M189.7,89.2v3.9h4.4v3.7h-4.4v7.6h-4.2v-19h9v3.9H189.7z"/>
				<path class="st1" d="M210.2,94.8c0,1.5-0.2,2.9-0.5,4.1c-0.3,1.2-0.8,2.3-1.4,3.2c-0.6,0.9-1.3,1.6-2.2,2
					c-0.9,0.5-1.9,0.7-2.9,0.7c-1.1,0-2.1-0.2-3-0.7c-0.9-0.5-1.6-1.2-2.2-2c-0.6-0.9-1.1-1.9-1.4-3.2c-0.3-1.2-0.5-2.6-0.5-4.1
					s0.2-2.9,0.5-4.1c0.3-1.2,0.8-2.3,1.4-3.1c0.6-0.9,1.3-1.5,2.2-2c0.9-0.5,1.9-0.7,3-0.7c1.1,0,2.1,0.2,2.9,0.7
					c0.9,0.5,1.6,1.1,2.2,2c0.6,0.9,1.1,1.9,1.4,3.1C210,91.9,210.2,93.2,210.2,94.8z M205.9,94.8c0-0.8-0.1-1.6-0.2-2.3
					c-0.1-0.7-0.3-1.3-0.5-1.8c-0.2-0.5-0.5-0.9-0.9-1.2c-0.3-0.3-0.8-0.4-1.2-0.4c-0.5,0-0.9,0.1-1.2,0.4c-0.4,0.3-0.6,0.7-0.9,1.2
					c-0.2,0.5-0.4,1.1-0.5,1.8c-0.1,0.7-0.2,1.5-0.2,2.3c0,0.8,0.1,1.6,0.2,2.3c0.1,0.7,0.3,1.3,0.5,1.9c0.2,0.5,0.5,0.9,0.9,1.2
					c0.4,0.3,0.8,0.5,1.2,0.5c0.5,0,0.9-0.2,1.2-0.5c0.3-0.3,0.6-0.7,0.9-1.2c0.2-0.5,0.4-1.1,0.5-1.9
					C205.8,96.3,205.9,95.6,205.9,94.8z"/>
				<path class="st1" d="M220.4,104.3l-2.5-7.6h-1.2v7.6h-4v-19h5.9c1.8,0,3.2,0.5,4.2,1.4s1.5,2.4,1.5,4.3c0,0.7-0.1,1.3-0.2,1.9
					c-0.2,0.6-0.4,1-0.6,1.4c-0.2,0.4-0.5,0.7-0.8,1s-0.6,0.4-0.9,0.5l3.1,8.5H220.4z M220.1,91.3c0-0.5-0.1-0.9-0.2-1.2
					c-0.1-0.3-0.3-0.5-0.5-0.7c-0.2-0.2-0.4-0.3-0.7-0.4c-0.3-0.1-0.5-0.1-0.7-0.1h-1.3v4.8h1.2c0.6,0,1.1-0.2,1.5-0.6
					C219.9,92.7,220.1,92.1,220.1,91.3z"/>
				<path class="st1" d="M231.9,104.3v-19h8.9v3.8h-4.9v3.7h4.5v3.5h-4.5v4.1h5.2v3.9H231.9z"/>
				<path class="st1" d="M251.7,104.3h-5.3l-4.4-19h4.7l2.5,13.9h0.1l2.5-13.9h4.5L251.7,104.3z"/>
				<path class="st1" d="M257.8,104.3v-19h8.9v3.8h-4.9v3.7h4.5v3.5h-4.5v4.1h5.2v3.9H257.8z"/>
				<path class="st1" d="M277.1,104.3l-2.5-7.6h-1.2v7.6h-4v-19h5.9c1.8,0,3.2,0.5,4.2,1.4c1,1,1.5,2.4,1.5,4.3
					c0,0.7-0.1,1.3-0.2,1.9c-0.2,0.6-0.4,1-0.6,1.4c-0.2,0.4-0.5,0.7-0.8,1c-0.3,0.3-0.6,0.4-0.9,0.5l3.1,8.5H277.1z M276.9,91.3
					c0-0.5-0.1-0.9-0.2-1.2c-0.1-0.3-0.3-0.5-0.5-0.7c-0.2-0.2-0.4-0.3-0.7-0.4c-0.3-0.1-0.5-0.1-0.7-0.1h-1.3v4.8h1.2
					c0.6,0,1.1-0.2,1.5-0.6C276.6,92.7,276.9,92.1,276.9,91.3z"/>
				<path class="st1" d="M290.3,97.5v6.8h-4.1v-6.8l-4.7-12.2h4.5l2.2,7.9h0.1l2.2-7.9h4.4L290.3,97.5z"/>
				<path class="st1" d="M307.9,98.9c0,1-0.2,1.9-0.5,2.6c-0.3,0.7-0.7,1.2-1.3,1.7c-0.5,0.4-1.1,0.7-1.8,0.9
					c-0.6,0.2-1.3,0.3-2,0.3h-6.1v-19h5.5c0.6,0,1.2,0.1,1.8,0.2c0.6,0.1,1.2,0.4,1.8,0.7c0.5,0.3,1,0.8,1.3,1.5
					c0.4,0.6,0.5,1.5,0.5,2.5c0,1.1-0.2,2-0.7,2.7c-0.4,0.7-1,1.2-1.6,1.5v0.1c0.3,0.1,0.7,0.3,1,0.5c0.3,0.2,0.7,0.5,0.9,0.9
					c0.3,0.4,0.5,0.8,0.7,1.3C307.8,97.6,307.9,98.2,307.9,98.9z M303.6,90.9c0-0.7-0.2-1.3-0.6-1.6s-0.9-0.5-1.4-0.5h-1.4V93h1.4
					c0.5,0,1-0.2,1.4-0.5C303.4,92.2,303.6,91.6,303.6,90.9z M303.9,98.5c0-0.4-0.1-0.8-0.2-1.1c-0.1-0.3-0.3-0.5-0.5-0.7
					c-0.2-0.2-0.5-0.3-0.7-0.4c-0.3-0.1-0.5-0.1-0.8-0.1h-1.5v4.6h1.6c0.6,0,1.1-0.2,1.5-0.6C303.7,99.8,303.9,99.2,303.9,98.5z"/>
				<path class="st1" d="M323.8,94.8c0,1.5-0.2,2.9-0.5,4.1c-0.3,1.2-0.8,2.3-1.4,3.2c-0.6,0.9-1.3,1.6-2.2,2
					c-0.9,0.5-1.9,0.7-2.9,0.7c-1.1,0-2.1-0.2-3-0.7c-0.9-0.5-1.6-1.2-2.2-2c-0.6-0.9-1.1-1.9-1.4-3.2c-0.3-1.2-0.5-2.6-0.5-4.1
					s0.2-2.9,0.5-4.1c0.3-1.2,0.8-2.3,1.4-3.1c0.6-0.9,1.3-1.5,2.2-2c0.9-0.5,1.9-0.7,3-0.7c1.1,0,2.1,0.2,2.9,0.7
					c0.9,0.5,1.6,1.1,2.2,2c0.6,0.9,1.1,1.9,1.4,3.1C323.6,91.9,323.8,93.2,323.8,94.8z M319.6,94.8c0-0.8-0.1-1.6-0.2-2.3
					c-0.1-0.7-0.3-1.3-0.5-1.8c-0.2-0.5-0.5-0.9-0.9-1.2c-0.3-0.3-0.8-0.4-1.2-0.4c-0.5,0-0.9,0.1-1.2,0.4c-0.4,0.3-0.6,0.7-0.9,1.2
					c-0.2,0.5-0.4,1.1-0.5,1.8c-0.1,0.7-0.2,1.5-0.2,2.3c0,0.8,0.1,1.6,0.2,2.3c0.1,0.7,0.3,1.3,0.5,1.9c0.2,0.5,0.5,0.9,0.9,1.2
					c0.4,0.3,0.8,0.5,1.2,0.5c0.5,0,0.9-0.2,1.2-0.5c0.3-0.3,0.6-0.7,0.9-1.2c0.2-0.5,0.4-1.1,0.5-1.9
					C319.5,96.3,319.6,95.6,319.6,94.8z"/>
				<path class="st1" d="M339.2,94.9c0,1.4-0.2,2.7-0.5,3.9c-0.3,1.2-0.8,2.2-1.4,3c-0.6,0.8-1.4,1.5-2.4,1.9
					c-1,0.4-2.1,0.7-3.4,0.7h-5.2v-19h5.2c1.3,0,2.5,0.2,3.4,0.7c1,0.4,1.8,1.1,2.4,1.9s1.1,1.8,1.4,3
					C339,92.1,339.2,93.4,339.2,94.9z M335,94.9c0-1.9-0.3-3.4-0.9-4.3c-0.6-1-1.5-1.5-2.5-1.5h-1v11.5h1c1,0,1.8-0.5,2.5-1.5
					C334.7,98.1,335,96.7,335,94.9z"/>
				<path class="st1" d="M348.3,97.5v6.8h-4.1v-6.8l-4.7-12.2h4.5l2.2,7.9h0.1l2.2-7.9h4.4L348.3,97.5z"/>
			</g>
		</g>
		<g>
			<line class="st2" x1="9.9" y1="27" x2="85.2" y2="27"/>
			<line class="st2" x1="26.3" y1="39" x2="85.2" y2="39"/>
			<line class="st2" x1="40.9" y1="50.9" x2="85.2" y2="50.9"/>
		</g>
		<g>
			<line class="st2" x1="446.5" y1="27" x2="371.2" y2="27"/>
			<line class="st2" x1="430.1" y1="39" x2="371.2" y2="39"/>
			<line class="st2" x1="415.4" y1="50.9" x2="371.2" y2="50.9"/>
		</g>
	</g>
</g>
</svg>
